<svg xmlns="http://www.w3.org/2000/svg" viewBox="0 0 450 150">
  <path fill="#ffffff" d="M64.6,35.5h20.8l-18.9,35.4l20.4,38.1H66.1l-16.1-31.1l-15.9,31.1H13.6l20.4-38.1L15.1,35.5h20.8l14.1,27.1L64.6,35.5z M131.1,35.5v28.8h28.3V35.5h20.2v73.5h-20.2V82.5h-28.3v26.4h-20.2V35.5H131.1z M228.4,72.4c13.7,0,24.8-11.1,24.8-24.8c0-13.7-11.1-24.8-24.8-24.8h-34.9v73.5h20.2V82.5h14.7l13.6,26.4h22l-15.6-30.2C228.4,78.7,228.4,72.4,228.4,72.4z M213.7,64.3h-14.7V40.9h14.7c6.1,0,11.1,5,11.1,11.1S219.8,64.3,213.7,64.3z M300.4,35.5c-20.3,0-36.8,16.5-36.8,36.8s16.5,36.8,36.8,36.8c11.9,0,22.5-5.7,29.2-14.5l-14.6-11c-3.6,5.3-9.7,8.7-16.6,8.7c-11.1,0-20.2-9-20.2-20.2c0-11.1,9-20.2,20.2-20.2c6.9,0,13,3.4,16.6,8.7l14.6-11C322.9,41.2,312.3,35.5,300.4,35.5z"/>
  <rect fill="#ffffff" x="350" y="35" width="80" height="80" rx="15"/>
  <path fill="#D82C26" d="M390,55c-19.3,0-35,15.7-35,35s15.7,35,35,35s35-15.7,35-35S409.3,55,390,55z M390,110c-11,0-20-9-20-20s9-20,20-20s20,9,20,20S401,110,390,110z"/>
</svg>
